#!OML:ASF H:\Terrain\Patient Classification 1\Terrain2\Thursday\justin.ASF
:FULLY-SPECIFIED
:DEGREES
1635
root -2.32468 23.4279 5.50627 364.219 -184.376 -355.628
lowerback 11.4276 1.22876 0.787491
upperback 3.26502 2.15203 2.08691
thorax -3.04699 1.21476 1.41918
lowerneck -13.2715 -4.86548 -8.64318
upperneck 37.6967 -2.76641 5.85323
head 15.8608 -0.303236 3.97241
rclavicle 2.26118e-015 -8.44835e-015
rhumerus -27.3868 -5.47058 -82.5166
rradius 31.9198
rwrist -7.84965
rhand -16.2003 14.9887
rfingers 7.12502
rthumb 10.0069 -14.7534
lclavicle 2.26118e-015 -8.44835e-015
lhumerus -30.8374 2.92287 83.2804
lradius 34.454
lwrist 1.95281
lhand -24.0032 -2.99341
lfingers 7.12502
lthumb 2.47426 26.972
rfemur -9.92711 -6.38452 22.9968
rtibia 51.5172
rfoot -3.95211 -9.05969
rtoes 13.2604
lfemur -31.2531 -0.103708 -15.0943
ltibia 36.2218
lfoot -5.15279 -10.6685
ltoes 0.810183
1636
root -2.33372 23.4846 5.4392 364.028 -184.347 -355.827
lowerback 11.3766 1.12435 0.598044
upperback 3.36111 1.99593 2.08532
thorax -2.92159 1.14076 1.54852
lowerneck -13.4389 -4.81526 -8.62769
upperneck 37.7053 -2.6743 5.75868
head 15.8938 -0.283514 3.94285
rclavicle -1.72943e-014 -2.18663e-015
rhumerus -27.3634 -5.44783 -82.4404
rradius 32.3238
rwrist -8.76692
rhand -16.4265 14.935
rfingers 7.12502
rthumb 9.78871 -14.8175
lclavicle -1.72943e-014 -2.18663e-015
lhumerus -30.4686 2.77811 83.1739
lradius 34.5894
lwrist 2.3676
lhand -11.6507 21.3441
lfingers 7.12502
lthumb 14.3936 50.8251
rfemur -10.8036 -6.81351 22.8823
rtibia 53.2811
rfoot -5.86407 -9.45536
rtoes 15.5113
lfemur -30.1401 -0.345176 -15.3287
ltibia 35.081
lfoot -4.77533 -10.4639
ltoes 2.01342
1637
root -2.34083 23.538 5.37543 363.903 -184.296 -356.099
lowerback 11.3346 1.00709 0.263784
upperback 3.35441 1.8008 2.1334
thorax -2.91162 1.04326 1.81464
lowerneck -13.5974 -4.78229 -8.61825
upperneck 37.9653 -2.47089 5.49988
head 16.0429 -0.224553 3.88057
rclavicle -7.10655e-015 4.17448e-015
rhumerus -27.4059 -5.5368 -82.1903
rradius 32.6077
rwrist -9.33967
rhand -16.8767 14.1143
rfingers 7.12502
rthumb 9.35431 -15.6582
lclavicle -7.10655e-015 4.17448e-015
lhumerus -30.3736 2.89373 83.1192
lradius 34.9559
lwrist 2.68619
lhand -12.6239 21.1752
lfingers 7.12502
lthumb 13.4557 50.7206
rfemur -11.7568 -7.35439 22.7112
rtibia 54.9091
rfoot -7.10918 -9.78641
rtoes 15.3052
lfemur -29.1492 -0.510799 -15.6677
ltibia 33.9255
lfoot -4.42183 -10.3457
ltoes 2.04509
1638
root -2.34632 23.5855 5.31194 363.728 -184.259 -356.265
lowerback 11.4149 0.86133 0.0556636
upperback 3.31188 1.58387 2.1728
thorax -2.99918 0.934932 2.00112
lowerneck -13.6229 -4.70554 -8.54447
upperneck 38.1354 -2.23879 5.24117
head 16.109 -0.145177 3.80451
rclavicle -5.41688e-015 -2.06736e-014
rhumerus -27.3887 -5.74626 -82.0002
rradius 32.6739
rwrist -9.35292
rhand -17.3845 13.2987
rfingers 7.12502
rthumb 8.8643 -16.4952
lclavicle -5.41688e-015 -2.06736e-014
lhumerus -30.3076 3.36963 82.7244
lradius 35.3738
lwrist 1.59412
lhand -7.0474 29.3582
lfingers 7.12502
lthumb 18.8252 58.4672
rfemur -12.5843 -7.78766 22.7183
rtibia 56.3824
rfoot -8.25302 -10.3099
rtoes 16.2936
lfemur -28.1484 -0.617054 -15.9001
ltibia 32.771
lfoot -4.11151 -10.2328
ltoes 1.47914
1639
root -2.35438 23.6305 5.24878 363.448 -184.317 -356.714
lowerback 11.5258 0.788234 -0.379427
upperback 3.3054 1.42957 2.08582
thorax -3.06808 0.857508 2.17604
lowerneck -13.5337 -4.61732 -8.516
upperneck 38.1463 -2.09542 5.19921
head 16.0766 -0.0837672 3.80584
rclavicle 2.48481e-016 3.77691e-015
rhumerus -27.3963 -6.03572 -81.8626
rradius 32.688
rwrist -9.17272
rhand -17.5505 13.5333
rfingers 7.12502
rthumb 8.70416 -16.2673
lclavicle 2.48481e-016 3.77691e-015
lhumerus -30.1797 3.63852 82.294
lradius 35.6287
lwrist 0.942361
lhand -10.9095 23.4024
lfingers 7.12502
lthumb 15.1077 52.831
rfemur -13.2493 -8.1267 22.3601
rtibia 57.705
rfoot -9.87032 -10.7387
rtoes 18.3594
lfemur -27.0172 -0.799243 -16.4305
ltibia 31.6619
lfoot -3.74467 -10.0466
ltoes 2.10232
1640
root -2.36303 23.6736 5.18658 363.208 -184.405 -357.129
lowerback 11.5653 0.76606 -0.785925
upperback 3.266 1.34346 2.03502
thorax -3.13389 0.813062 2.36426
lowerneck -13.2966 -4.59184 -8.59039
upperneck 38.1032 -2.04962 5.22171
head 15.9942 -0.0668207 3.83342
rclavicle 6.4605e-016 5.56597e-015
rhumerus -27.5621 -6.17636 -81.6553
rradius 32.8313
rwrist -9.26116
rhand -17.6952 14.2131
rfingers 7.12502
rthumb 8.56449 -15.5932
lclavicle 6.4605e-016 5.56597e-015
lhumerus -30.2025 3.59504 82.2003
lradius 35.8333
lwrist 1.74413
lhand -7.98018 24.5955
lfingers 7.12502
lthumb 17.9279 53.7892
rfemur -13.9394 -8.5181 21.9973
rtibia 58.8707
rfoot -11.2541 -10.8696
rtoes 17.2615
lfemur -25.9315 -0.875274 -16.963
ltibia 30.5901
lfoot -3.31733 -9.84357
ltoes 2.42396
1641
root -2.36983 23.7102 5.12147 363.139 -184.526 -357.394
lowerback 11.4407 0.723758 -1.08415
upperback 3.20141 1.24208 2.04598
thorax -3.13357 0.759232 2.56007
lowerneck -13.2473 -4.56081 -8.66092
upperneck 38.2023 -1.94432 5.18956
head 16.0255 -0.0309408 3.85711
rclavicle 5.81445e-015 -1.98785e-016
rhumerus -27.7113 -6.2128 -81.4642
rradius 33.0055
rwrist -9.46339
rhand -18.2115 14.9007
rfingers 7.12502
rthumb 8.06621 -14.9253
lclavicle 5.81445e-015 -1.98785e-016
lhumerus -30.1778 3.51168 82.2807
lradius 36.016
lwrist 3.04206
lhand -13.0134 19.7514
lfingers 7.12502
lthumb 13.0803 49.3212
rfemur -14.7992 -8.85658 21.8399
rtibia 59.8692
rfoot -11.8231 -11.0445
rtoes 15.5148
lfemur -25.0533 -0.846639 -17.3506
ltibia 29.5479
lfoot -2.93959 -9.56506
ltoes 1.76148
1642
root -2.3749 23.7463 5.06131 363.103 -184.677 -357.621
lowerback 11.3216 0.686105 -1.32043
upperback 3.19057 1.15816 2.02647
thorax -3.07847 0.715161 2.68662
lowerneck -13.4248 -4.5339 -8.71432
upperneck 38.3802 -1.86243 5.22247
head 16.1556 0.00220482 3.9093
rclavicle 1.02871e-014 9.93923e-016
rhumerus -27.6954 -6.40275 -81.3445
rradius 33.1712
rwrist -9.55412
rhand -18.2933 14.698
rfingers 7.12502
rthumb 7.98729 -15.1311
lclavicle 1.02871e-014 9.93923e-016
lhumerus -30.0044 3.39958 82.2507
lradius 36.2565
lwrist 4.15089
lhand -17.255 15.0174
lfingers 7.12502
lthumb 8.98929 44.8059
rfemur -15.6861 -9.02266 21.7922
rtibia 60.6697
rfoot -12.2675 -11.41
rtoes 14.755
lfemur -24.2314 -0.806227 -17.6507
ltibia 28.522
lfoot -2.71085 -9.27746
ltoes 3.787
1643
root -2.37786 23.7866 5.00315 362.846 -184.752 -357.771
lowerback 11.4383 0.667824 -1.38713
upperback 3.26481 1.13074 1.96672
thorax -3.06324 0.70423 2.66496
lowerneck -13.5493 -4.53855 -8.5982
upperneck 38.3846 -1.87425 5.11086
head 16.1851 -0.00660549 3.83663
rclavicle 5.71506e-015 1.90833e-014
rhumerus -27.6486 -6.73215 -81.3182
rradius 33.3426
rwrist -9.9659
rhand -18.4963 13.9776
rfingers 7.12502
rthumb 7.79129 -15.8588
lclavicle 5.71506e-015 1.90833e-014
lhumerus -29.7613 3.52922 81.9187
lradius 36.6981
lwrist 3.62897
lhand -10.8658 23.9993
lfingers 7.12502
lthumb 15.1497 53.4248
rfemur -16.1964 -9.22664 21.8108
rtibia 61.2538
rfoot -13.1395 -11.5871
rtoes 14.9612
lfemur -23.1435 -0.639302 -17.8795
ltibia 27.4497
lfoot -2.40829 -9.12588
ltoes 7.72903
1644
root -2.38086 23.8246 4.94425 362.685 -184.871 -358.159
lowerback 11.5042 0.684056 -1.69096
upperback 3.23921 1.1069 1.86359
thorax -3.1273 0.691618 2.73188
lowerneck -13.5701 -4.51387 -8.5497
upperneck 38.3061 -1.84078 5.00576
head 16.1431 -0.00578066 3.78034
rclavicle -1.37161e-014 -1.21259e-014
rhumerus -27.7711 -6.91763 -81.2784
rradius 33.5372
rwrist -10.7649
rhand -18.985 14.0342
rfingers 7.12502
rthumb 7.31965 -15.8192
lclavicle -1.37161e-014 -1.21259e-014
lhumerus -29.6165 3.72771 81.6257
lradius 37.1389
lwrist 2.84664
lhand -13.8227 20.522
lfingers 7.12502
lthumb 12.3 50.1403
rfemur -16.7752 -9.44472 21.5607
rtibia 61.6384
rfoot -14.0596 -11.5719
rtoes 15.6082
lfemur -22.1713 -0.396436 -18.3865
ltibia 26.3565
lfoot -1.99636 -9.08698
ltoes 8.54368
1645
root -2.38674 23.8603 4.89387 362.87 -185.054 -358.99
lowerback 11.3186 0.70967 -2.51452
upperback 3.0769 1.01283 1.68218
thorax -3.19705 0.638214 3.02339
lowerneck -13.6793 -4.4365 -8.51446
upperneck 38.279 -1.72956 4.94444
head 16.1426 0.0308372 3.76335
rclavicle -8.24956e-015 6.95746e-015
rhumerus -27.8979 -7.16101 -81.0651
rradius 33.6892
rwrist -10.6594
rhand -18.6713 14.2106
rfingers 7.12502
rthumb 7.62243 -15.632
lclavicle -8.24956e-015 6.95746e-015
lhumerus -29.6126 3.73642 81.5584
lradius 37.5196
lwrist 3.86585
lhand -16.4785 17.3861
lfingers 7.12502
lthumb 9.73848 47.1409
rfemur -17.8459 -9.60822 20.8651
rtibia 61.8158
rfoot -14.5496 -11.4429
rtoes 15.0096
lfemur -21.7017 -0.322512 -19.3409
ltibia 25.3678
lfoot -1.6671 -8.96531
ltoes 7.79395
1646
root -2.39242 23.8959 4.8449 363.041 -185.187 -359.575
lowerback 11.1334 0.668968 -3.12138
upperback 2.96682 0.869797 1.56392
thorax -3.20486 0.563131 3.26496
lowerneck -13.8341 -4.34104 -8.36708
upperneck 38.2864 -1.5927 4.81146
head 16.1651 0.083797 3.70115
rclavicle -4.12478e-015 1.39149e-015
rhumerus -27.9226 -7.35059 -80.8957
rradius 33.7666
rwrist -10.3449
rhand -18.3666 14.1522
rfingers 7.12502
rthumb 7.91656 -15.6796
lclavicle -4.12478e-015 1.39149e-015
lhumerus -29.5704 3.89617 81.4546
lradius 37.9023
lwrist 5.02314
lhand -17.4674 17.3001
lfingers 7.12502
lthumb 8.78435 47.0973
rfemur -18.7795 -9.74944 20.4702
rtibia 61.7152
rfoot -14.7651 -11.339
rtoes 14.9965
lfemur -21.2838 -0.344297 -19.9921
ltibia 24.4395
lfoot -1.21704 -8.76206
ltoes 8.7028
1647
root -2.3971 23.9295 4.78849 363.127 -185.304 -359.326
lowerback 10.9539 0.60327 -2.79507
upperback 2.92121 0.819566 1.63065
thorax -3.14763 0.533714 3.15778
lowerneck -13.7686 -4.30412 -8.40777
upperneck 38.177 -1.59461 4.89454
head 16.0928 0.0824928 3.73585
rclavicle -6.55989e-015 -2.20651e-014
rhumerus -27.9845 -7.26177 -80.9181
rradius 33.8958
rwrist -11.1887
rhand -18.7973 14.288
rfingers 7.12502
rthumb 7.50081 -15.559
lclavicle -6.55989e-015 -2.20651e-014
lhumerus -29.4145 4.26026 81.1708
lradius 38.2213
lwrist 4.47541
lhand -16.1066 20.8985
lfingers 7.12502
lthumb 10.0973 50.6362
rfemur -19.333 -9.80496 21.0152
rtibia 61.3344
rfoot -15.2615 -11.3293
rtoes 15.7843
lfemur -20.7127 -0.203337 -19.7534
ltibia 23.5654
lfoot -0.801835 -8.6589
ltoes 9.77143
1648
root -2.40641 23.9539 4.73084 363.238 -185.365 -359.243
lowerback 10.7412 0.559483 -2.54403
upperback 2.85411 0.78349 1.63099
thorax -3.0957 0.510502 3.02192
lowerneck -13.7061 -4.30415 -8.45586
upperneck 38.0262 -1.68717 5.04445
head 16.0093 0.0499071 3.7831
rclavicle -6.85807e-015 -1.41137e-014
rhumerus -28.1423 -7.20279 -80.8973
rradius 34.1023
rwrist -11.9476
rhand -19.1131 14.807
rfingers 7.12502
rthumb 7.19597 -15.0507
lclavicle -6.85807e-015 -1.41137e-014
lhumerus -29.2811 4.58013 80.847
lradius 38.5419
lwrist 3.43271
lhand -15.5934 20.5915
lfingers 7.12502
lthumb 10.5924 50.3045
rfemur -19.8696 -10.0634 21.3084
rtibia 60.7897
rfoot -15.7089 -11.0474
rtoes 14.5446
lfemur -20.1454 -0.217553 -19.7119
ltibia 22.8516
lfoot -0.694614 -8.45796
ltoes 11.1647
